<svg xmlns="http://www.w3.org/2000/svg" width="1332.52" height="690.53" viewBox="-167.61 189.61 1332.52 690.53">
  <path d="M524.284,294.458L526.308,296.032L529.691,298.044L531.909,297.131L533.322,295.914L534.77,296.143L537.552,298.416L538.833,298.922L539.437,300.747L538.619,302.409L540.276,303.847L540.811,305.686L540.385,306.715L541.863,309.111L541.288,310.743L539.85,310.579L533.741,312.858L533.225,314.137L534.493,316.56L538.506,319.463L537.25,321.025L535.335,322.005L535.003,324.07L531.816,324.43L530.455,325.1L527.57,324.61L527.213,325.569L524.576,324.681L521.554,323.663L518.26,324.393L518.116,322.41L519.839,318.599L517.58,317.851L515.237,317.816L513.935,316.596L514.38,315.153L513.148,313.81L513.942,312.997L512.71,311.193L512.374,310.223L513.306,308.134L512.499,307.003L515.045,306.391L515.95,304.457L516.389,300.752L516.633,299.119L518.937,299.081L520.64,299.628L521.749,298.488L521.848,295.625L520.892,294.142Z" fill="#79c8ff" stroke="#07101f" stroke-width="0.5" />
</svg>
